<svg xmlns="http://www.w3.org/2000/svg" xmlns:xlink="http://www.w3.org/1999/xlink" xmlns:lucid="lucid" width="1265" height="674"><g transform="translate(-65 -46.00000000000006)" lucid:page-tab-id="0_0"><path d="M586.7 140h220v560h-220z" fill-opacity="0"/><path d="M616.04 140h29.34m14.66 0h29.34m14.66 0h29.34m14.66 0h29.34m14.66 0h14.67v15.56m0 15.55v31.12m0 15.56v31.1m0 15.56v31.12m0 15.55v31.12m0 15.56v31.1m0 15.56v31.12m0 15.55v31.12m0 15.56v31.1m0 15.56v31.12m0 15.55v31.12m0 15.56v31.1m0 15.56V700h-14.66m-14.66 0h-29.34m-14.66 0h-29.34m-14.66 0h-29.34m-14.66 0h-29.34m-14.66 0H586.7v-15.56m0-15.55v-31.12m0-15.56v-31.1m0-15.56v-31.12m0-15.55v-31.12m0-15.56v-31.1m0-15.56v-31.12m0-15.55v-31.12m0-15.56v-31.1m0-15.56v-31.12m0-15.55v-31.12m0-15.56v-31.1m0-15.56V140h14.68" stroke="#19967d" stroke-width="3" fill="none"/><path d="M522 220h68.5" stroke="#000" stroke-width="2" fill="none"/><path d="M522.03 221H521v-2h1.03z"/><path d="M605.76 220l-14.26 4.64v-9.28z" stroke="#000" stroke-width="2"/><path d="M1090 140h220v560h-220z" fill-opacity="0"/><path d="M1119.33 140h29.34m14.66 0h29.34m14.66 0h29.34m14.66 0h29.34m14.66 0H1310v15.56m0 15.55v31.12m0 15.56v31.1m0 15.56v31.12m0 15.55v31.12m0 15.56v31.1m0 15.56v31.12m0 15.55v31.12m0 15.56v31.1m0 15.56v31.12m0 15.55v31.12m0 15.56v31.1m0 15.56V700h-14.67m-14.66 0h-29.34m-14.66 0h-29.34m-14.66 0h-29.34m-14.66 0h-29.34m-14.66 0H1090v-15.56m0-15.55v-31.12m0-15.56v-31.1m0-15.56v-31.12m0-15.55v-31.12m0-15.56v-31.1m0-15.56v-31.12m0-15.55v-31.12m0-15.56v-31.1m0-15.56v-31.12m0-15.55v-31.12m0-15.56v-31.1m0-15.56V140h14.67" stroke="#834187" stroke-width="3" fill="none"/><path d="M873.42 180h160v120h-160z" stroke="#000" stroke-width="2" fill="#fff"/><use xlink:href="#a" transform="matrix(1,0,0,1,878.4222222222224,185.00000000000006) translate(53.05 59.0875)"/><path d="M873.42 460h160v120h-160z" stroke="#000" stroke-width="2" fill="#fff"/><use xlink:href="#b" transform="matrix(1,0,0,1,878.4222222222224,465) translate(55.224999999999994 59.0875)"/><path d="M738 180c17.67 0 32 17.9 32 40s-14.33 40-32 40h-96c-17.67 0-32-17.9-32-40s14.33-40 32-40z" stroke="#000" stroke-width="2" fill="#fff"/><use xlink:href="#c" transform="matrix(1,0,0,1,615,185.00000000000006) translate(28.574999999999996 27.525)"/><use xlink:href="#d" transform="matrix(1,0,0,1,615,185.00000000000006) translate(91.475 27.525)"/><use xlink:href="#e" transform="matrix(1,0,0,1,615,185.00000000000006) translate(35.525 49.125)"/><path d="M110 240h180v120c-30.06-20.04-48.78-20.04-60.12-20.04-18 0-41.94 20.04-59.94 20.04-11.16 0-30.06 0-59.94-20.04z" stroke="#000" stroke-width="2" fill="#fff"/><use xlink:href="#f" transform="matrix(1,0,0,1,115,245.00000000000006) translate(18.57499999999999 36.9)"/><use xlink:href="#g" transform="matrix(1,0,0,1,115,245.00000000000006) translate(73.52499999999999 36.9)"/><use xlink:href="#h" transform="matrix(1,0,0,1,115,245.00000000000006) translate(93.52499999999999 36.9)"/><use xlink:href="#i" transform="matrix(1,0,0,1,115,245.00000000000006) translate(60.55 58.5)"/><path d="M115 500h180v120c-30.06-20.04-48.78-20.04-60.12-20.04-18 0-41.94 20.04-59.94 20.04-11.16 0-30.06 0-59.94-20.04z" stroke="#000" stroke-width="2" fill="#fff"/><use xlink:href="#f" transform="matrix(1,0,0,1,120,505) translate(17.07499999999999 36.9)"/><use xlink:href="#g" transform="matrix(1,0,0,1,120,505) translate(72.02499999999999 36.9)"/><use xlink:href="#j" transform="matrix(1,0,0,1,120,505) translate(92.02499999999999 36.9)"/><use xlink:href="#k" transform="matrix(1,0,0,1,120,505) translate(11.674999999999997 58.5)"/><use xlink:href="#l" transform="matrix(1,0,0,1,120,505) translate(52.574999999999996 58.5)"/><path d="M738 300c17.67 0 32 17.9 32 40s-14.33 40-32 40h-96c-17.67 0-32-17.9-32-40s14.33-40 32-40z" stroke="#000" stroke-width="2" fill="#fff"/><use xlink:href="#c" transform="matrix(1,0,0,1,615,305.00000000000006) translate(28.574999999999996 27.525)"/><use xlink:href="#d" transform="matrix(1,0,0,1,615,305.00000000000006) translate(91.475 27.525)"/><use xlink:href="#m" transform="matrix(1,0,0,1,615,305.00000000000006) translate(19.549999999999997 49.125)"/><path d="M743 400c17.67 0 32 17.9 32 40s-14.33 40-32 40h-96c-17.67 0-32-17.9-32-40s14.33-40 32-40z" stroke="#000" stroke-width="2" fill="#fff"/><use xlink:href="#n" transform="matrix(1,0,0,1,620,405.00000000000006) translate(3.0999999999999943 38.4625)"/><use xlink:href="#o" transform="matrix(1,0,0,1,620,405.00000000000006) translate(69 38.4625)"/><use xlink:href="#p" transform="matrix(1,0,0,1,620,405.00000000000006) translate(103.95 38.4625)"/><path d="M743 500c17.67 0 32 17.9 32 40s-14.33 40-32 40h-96c-17.67 0-32-17.9-32-40s14.33-40 32-40z" stroke="#000" stroke-width="2" fill="#fff"/><use xlink:href="#n" transform="matrix(1,0,0,1,620,505) translate(2.0999999999999943 27.525)"/><use xlink:href="#o" transform="matrix(1,0,0,1,620,505) translate(68 27.525)"/><use xlink:href="#q" transform="matrix(1,0,0,1,620,505) translate(102.95 27.525)"/><use xlink:href="#r" transform="matrix(1,0,0,1,620,505) translate(125.9 27.525)"/><use xlink:href="#s" transform="matrix(1,0,0,1,620,505) translate(36.55 49.125)"/><path d="M375 520h160v120H375z" stroke="#000" stroke-width="2" fill="#fff"/><use xlink:href="#t" transform="matrix(1,0,0,1,380,525.0000000000001) translate(27.025 48.775)"/><use xlink:href="#u" transform="matrix(1,0,0,1,380,525.0000000000001) translate(38.574999999999996 70.375)"/><path d="M370 180h150v80H370z" stroke="#000" stroke-width="2" fill="#fff"/><use xlink:href="#v" transform="matrix(1,0,0,1,375,185.00000000000006) translate(28.5 38.4625)"/><path d="M370 300h150v80H370z" stroke="#000" stroke-width="2" fill="#fff"/><use xlink:href="#w" transform="matrix(1,0,0,1,375,305.00000000000006) translate(39.525 38.4625)"/><path d="M292 266.13h38V220h20.5" stroke="#000" stroke-width="2" fill="none"/><path d="M292.03 267.13H291v-2h1.03z"/><path d="M365.76 220l-14.26 4.64v-9.28z" stroke="#000" stroke-width="2"/><path d="M292 328.8h38V340h20.5" stroke="#000" stroke-width="2" fill="none"/><path d="M292.03 329.8H291v-2h1.03z"/><path d="M365.76 340l-14.26 4.64v-9.28z" stroke="#000" stroke-width="2"/><path d="M522 340h68.5" stroke="#000" stroke-width="2" fill="none"/><path d="M522.03 341H521v-2h1.03z"/><path d="M605.76 340l-14.26 4.64v-9.28z" stroke="#000" stroke-width="2"/><path d="M297 560.18h38v28h20.5" stroke="#000" stroke-width="2" fill="none"/><path d="M297.03 561.18H296v-2h1.03z"/><path d="M370.76 588.18l-14.26 4.63v-9.26z" stroke="#000" stroke-width="2"/><path d="M537 551.47h38V440h20.5" stroke="#000" stroke-width="2" fill="none"/><path d="M537.03 552.47H536v-2h1.03z"/><path d="M610.76 440l-14.26 4.64v-9.28z" stroke="#000" stroke-width="2"/><path d="M537 615.47h39.34v-59.32h21.85" stroke="#000" stroke-width="2" fill="none"/><path d="M537.03 616.47H536v-2h1.03z"/><path d="M613.45 556.15l-14.26 4.64v-9.28z" stroke="#000" stroke-width="2"/><path d="M743 600c17.67 0 32 17.9 32 40s-14.33 40-32 40h-96c-17.67 0-32-17.9-32-40s14.33-40 32-40z" stroke="#000" stroke-width="2" fill="#fff"/><use xlink:href="#x" transform="matrix(1,0,0,1,620,605) translate(10.924999999999997 27.525)"/><use xlink:href="#j" transform="matrix(1,0,0,1,620,605) translate(78.175 27.525)"/><use xlink:href="#y" transform="matrix(1,0,0,1,620,605) translate(60.025 49.125)"/><path d="M871.42 192.53h-21V150H560v499.97h36.48" stroke="#000" stroke-width="2" fill="none"/><path d="M872.42 193.53h-1.02v-2h1.02z"/><path d="M611.75 649.97l-14.27 4.63v-9.27z" stroke="#000" stroke-width="2"/><path d="M772 220h81.92" stroke="#000" stroke-width="2" fill="none"/><path d="M772.03 221h-1.1l.07-1-.03-1h1.06z"/><path d="M869.2 220l-14.28 4.64v-9.28z" stroke="#000" stroke-width="2"/><path d="M772 340h43.2V221" stroke="#000" stroke-width="2" fill="none"/><path d="M772.03 341h-1.1l.07-1-.03-1h1.06z"/><path d="M815.2 221.03V220M777 540h76.92" stroke="#000" stroke-width="2" fill="none"/><path d="M777.03 541h-1.1l.07-1-.03-1h1.06z"/><path d="M869.2 540l-14.28 4.64v-9.28z" stroke="#000" stroke-width="2"/><path d="M777 640h176.42v-40.5" stroke="#000" stroke-width="2" fill="none"/><path d="M777.03 641h-1.1l.07-1-.03-1h1.06z"/><path d="M953.42 584.24l4.64 14.26h-9.27z" stroke="#000" stroke-width="2"/><path d="M1120 349.57h160v120c-26.72-20.04-43.36-20.04-53.44-20.04-16 0-37.28 20.04-53.28 20.04-9.92 0-26.72 0-53.28-20.04z" stroke="#000" stroke-width="2" fill="#fff"/><use xlink:href="#z" transform="matrix(1,0,0,1,1125,354.57179401623847) translate(27.474999999999994 36.9)"/><use xlink:href="#A" transform="matrix(1,0,0,1,1125,354.57179401623847) translate(71.325 36.9)"/><use xlink:href="#B" transform="matrix(1,0,0,1,1125,354.57179401623847) translate(43 58.5)"/><path d="M90 140h220v560H90z" fill-opacity="0"/><path d="M119.33 140h29.34m14.66 0h29.34m14.66 0h29.34m14.66 0h29.34m14.66 0H310v15.56m0 15.55v31.12m0 15.56v31.1m0 15.56v31.12m0 15.55v31.12m0 15.56v31.1m0 15.56v31.12m0 15.55v31.12m0 15.56v31.1m0 15.56v31.12m0 15.55v31.12m0 15.56v31.1m0 15.56V700h-14.67m-14.66 0h-29.34m-14.66 0h-29.34m-14.66 0h-29.34m-14.66 0h-29.34m-14.66 0H90v-15.56m0-15.55v-31.12m0-15.56v-31.1m0-15.56v-31.12m0-15.55v-31.12m0-15.56v-31.1m0-15.56v-31.12m0-15.55v-31.12m0-15.56v-31.1m0-15.56v-31.12m0-15.55v-31.12m0-15.56v-31.1m0-15.56V140h14.67" stroke="#c92d39" stroke-width="3" fill="none"/><path d="M330 140h220v560H330z" fill-opacity="0"/><path d="M359.33 140h29.34m14.66 0h29.34m14.66 0h29.34m14.66 0h29.34m14.66 0H550v15.56m0 15.55v31.12m0 15.56v31.1m0 15.56v31.12m0 15.55v31.12m0 15.56v31.1m0 15.56v31.12m0 15.55v31.12m0 15.56v31.1m0 15.56v31.12m0 15.55v31.12m0 15.56v31.1m0 15.56V700h-14.67m-14.66 0h-29.34m-14.66 0h-29.34m-14.66 0h-29.34m-14.66 0h-29.34m-14.66 0H330v-15.56m0-15.55v-31.12m0-15.56v-31.1m0-15.56v-31.12m0-15.55v-31.12m0-15.56v-31.1m0-15.56v-31.12m0-15.55v-31.12m0-15.56v-31.1m0-15.56v-31.12m0-15.55v-31.12m0-15.56v-31.1m0-15.56V140h14.67" stroke="#fcc438" stroke-width="3" fill="none"/><path d="M843.42 140h220v560h-220z" fill-opacity="0"/><path d="M872.76 140h29.33m14.66 0h29.33m14.66 0h29.33m14.66 0h29.33m14.66 0h14.66v15.56m0 15.55v31.12m0 15.56v31.1m0 15.56v31.12m0 15.55v31.12m0 15.56v31.1m0 15.56v31.12m0 15.55v31.12m0 15.56v31.1m0 15.56v31.12m0 15.55v31.12m0 15.56v31.1m0 15.56V700h-14.66m-14.67 0h-29.34m-14.67 0h-29.34m-14.67 0h-29.34m-14.67 0h-29.34m-14.67 0H843.4v-15.56m0-15.55v-31.12m0-15.56v-31.1m0-15.56v-31.12m0-15.55v-31.12m0-15.56v-31.1m0-15.56v-31.12m0-15.55v-31.12m0-15.56v-31.1m0-15.56v-31.12m0-15.55v-31.12m0-15.56v-31.1m0-15.56V140h14.67" stroke="#0c7cba" stroke-width="3" fill="none"/><path d="M1068.92 409.3h18.87" stroke="#000" stroke-width="8" fill="none"/><path d="M1069.02 413.3h-4.1v-8h4.1z"/><path d="M1106.06 409.3l-14.27 4.64v-9.27z" stroke="#000" stroke-width="8"/><path d="M85 80h240v60H85z" stroke="#000" stroke-opacity="0" stroke-width="2" fill="#fff" fill-opacity="0"/><g><use xlink:href="#C" transform="matrix(1,0,0,1,90,85.00000000000006) translate(40.37037037037035 30.708333333333336)"/><use xlink:href="#D" transform="matrix(1,0,0,1,90,85.00000000000006) translate(112.66666666666667 30.708333333333336)"/></g><path d="M320 66h240v74H320z" stroke="#000" stroke-opacity="0" stroke-width="2" fill="#fff" fill-opacity="0"/><g><use xlink:href="#E" transform="matrix(1,0,0,1,325,71.00000000000006) translate(76.51851851851852 25.333333333333336)"/><use xlink:href="#F" transform="matrix(1,0,0,1,325,71.00000000000006) translate(24.77777777777777 57.333333333333336)"/></g><path d="M570 80h240v60H570z" stroke="#000" stroke-opacity="0" stroke-width="2" fill="#fff" fill-opacity="0"/><g><use xlink:href="#G" transform="matrix(1,0,0,1,575,85.00000000000006) translate(26.370370370370352 30.708333333333336)"/><use xlink:href="#H" transform="matrix(1,0,0,1,575,85.00000000000006) translate(138.7407407407407 30.708333333333336)"/></g><path d="M843.42 80h240v60h-240z" stroke="#000" stroke-opacity="0" stroke-width="2" fill="#fff" fill-opacity="0"/><g><use xlink:href="#I" transform="matrix(1,0,0,1,848.4222222222224,85.00000000000006) translate(18.222222222222214 30.708333333333336)"/><use xlink:href="#J" transform="matrix(1,0,0,1,848.4222222222224,85.00000000000006) translate(106.81481481481482 30.708333333333336)"/></g><path d="M1070 80h240v60h-240z" stroke="#000" stroke-opacity="0" stroke-width="2" fill="#fff" fill-opacity="0"/><g><use xlink:href="#K" transform="matrix(1,0,0,1,1075,85.00000000000006) translate(29.296296296296276 30.708333333333336)"/><use xlink:href="#D" transform="matrix(1,0,0,1,1075,85.00000000000006) translate(123.74074074074075 30.708333333333336)"/></g><path d="M777 440h38.6V221" stroke="#000" stroke-width="2" fill="none"/><path d="M777.03 441h-1.1l.07-1-.03-1h1.06z"/><path d="M815.6 221.03V220M777 540h38.6V221" stroke="#000" stroke-width="2" fill="none"/><path d="M777.03 541h-1.1l.07-1-.03-1h1.06z"/><path d="M815.6 221.03V220" stroke="#000" stroke-width="2" fill="none"/><defs><path d="M143 4C61 4 22-44 18-125c-5-107 100-154 193-111 17 8 29 25 37 43l-32 9c-13-25-37-40-76-40-61 0-88 39-88 99 0 61 29 100 91 101 35 0 62-11 79-27v-45h-74v-28h105v86C228-13 192 4 143 4" id="L"/><path d="M240 0l2-218c-23 76-54 145-80 218h-23L58-218 59 0H30v-248h44l77 211c21-75 51-140 76-211h43V0h-30" id="M"/><g id="a"><use transform="matrix(0.05,0,0,0.05,0,0)" xlink:href="#L"/><use transform="matrix(0.05,0,0,0.05,14,0)" xlink:href="#M"/><use transform="matrix(0.05,0,0,0.05,28.950000000000003,0)" xlink:href="#M"/></g><path d="M127-220V0H93v-220H8v-28h204v28h-85" id="N"/><path d="M140-251c81 0 123 46 123 126C263-46 219 4 140 4 59 4 17-45 17-125s42-126 123-126zm0 227c63 0 89-41 89-101s-29-99-89-99c-61 0-89 39-89 99S79-25 140-24" id="O"/><g id="b"><use transform="matrix(0.05,0,0,0.05,0,0)" xlink:href="#N"/><use transform="matrix(0.05,0,0,0.05,10.600000000000001,0)" xlink:href="#O"/><use transform="matrix(0.05,0,0,0.05,24.6,0)" xlink:href="#M"/></g><path d="M197 0v-115H63V0H30v-248h33v105h134v-105h34V0h-34" id="P"/><path d="M84 4C-5 8 30-112 23-190h32v120c0 31 7 50 39 49 72-2 45-101 50-169h31l1 190h-30c-1-10 1-25-2-33-11 22-28 36-60 37" id="Q"/><path d="M210-169c-67 3-38 105-44 169h-31v-121c0-29-5-50-35-48C34-165 62-65 56 0H25l-1-190h30c1 10-1 24 2 32 10-44 99-50 107 0 11-21 27-35 58-36 85-2 47 119 55 194h-31v-121c0-29-5-49-35-48" id="R"/><path d="M141-36C126-15 110 5 73 4 37 3 15-17 15-53c-1-64 63-63 125-63 3-35-9-54-41-54-24 1-41 7-42 31l-33-3c5-37 33-52 76-52 45 0 72 20 72 64v82c-1 20 7 32 28 27v20c-31 9-61-2-59-35zM48-53c0 20 12 33 32 33 41-3 63-29 60-74-43 2-92-5-92 41" id="S"/><path d="M117-194c89-4 53 116 60 194h-32v-121c0-31-8-49-39-48C34-167 62-67 57 0H25l-1-190h30c1 10-1 24 2 32 11-22 29-35 61-36" id="T"/><g id="c"><use transform="matrix(0.05,0,0,0.05,0,0)" xlink:href="#P"/><use transform="matrix(0.05,0,0,0.05,12.950000000000001,0)" xlink:href="#Q"/><use transform="matrix(0.05,0,0,0.05,22.950000000000003,0)" xlink:href="#R"/><use transform="matrix(0.05,0,0,0.05,37.900000000000006,0)" xlink:href="#S"/><use transform="matrix(0.05,0,0,0.05,47.900000000000006,0)" xlink:href="#T"/></g><path d="M33 0v-248h34V0H33" id="U"/><path d="M177-190C167-65 218 103 67 71c-23-6-38-20-44-43l32-5c15 47 100 32 89-28v-30C133-14 115 1 83 1 29 1 15-40 15-95c0-56 16-97 71-98 29-1 48 16 59 35 1-10 0-23 2-32h30zM94-22c36 0 50-32 50-73 0-42-14-75-50-75-39 0-46 34-46 75s6 73 46 73" id="V"/><g id="d"><use transform="matrix(0.05,0,0,0.05,0,0)" xlink:href="#U"/><use transform="matrix(0.05,0,0,0.05,5,0)" xlink:href="#R"/><use transform="matrix(0.05,0,0,0.05,19.950000000000003,0)" xlink:href="#V"/></g><path d="M194 0L95-120 63-95V0H30v-248h33v124l119-124h40L117-140 236 0h-42" id="W"/><path d="M100-194c63 0 86 42 84 106H49c0 40 14 67 53 68 26 1 43-12 49-29l28 8c-11 28-37 45-77 45C44 4 14-33 15-96c1-61 26-98 85-98zm52 81c6-60-76-77-97-28-3 7-6 17-6 28h103" id="X"/><path d="M179-190L93 31C79 59 56 82 12 73V49c39 6 53-20 64-50L1-190h34L92-34l54-156h33" id="Y"/><path d="M115-194c55 1 70 41 70 98S169 2 115 4C84 4 66-9 55-30l1 105H24l-1-265h31l2 30c10-21 28-34 59-34zm-8 174c40 0 45-34 45-75s-6-73-45-74c-42 0-51 32-51 76 0 43 10 73 51 73" id="Z"/><path d="M100-194c62-1 85 37 85 99 1 63-27 99-86 99S16-35 15-95c0-66 28-99 85-99zM99-20c44 1 53-31 53-75 0-43-8-75-51-75s-53 32-53 75 10 74 51 75" id="aa"/><path d="M24-231v-30h32v30H24zM24 0v-190h32V0H24" id="ab"/><path d="M59-47c-2 24 18 29 38 22v24C64 9 27 4 27-40v-127H5v-23h24l9-43h21v43h35v23H59v120" id="ac"/><path d="M135-143c-3-34-86-38-87 0 15 53 115 12 119 90S17 21 10-45l28-5c4 36 97 45 98 0-10-56-113-15-118-90-4-57 82-63 122-42 12 7 21 19 24 35" id="ad"/><g id="e"><use transform="matrix(0.05,0,0,0.05,0,0)" xlink:href="#W"/><use transform="matrix(0.05,0,0,0.05,12,0)" xlink:href="#X"/><use transform="matrix(0.05,0,0,0.05,22,0)" xlink:href="#Y"/><use transform="matrix(0.05,0,0,0.05,31,0)" xlink:href="#Z"/><use transform="matrix(0.05,0,0,0.05,41,0)" xlink:href="#aa"/><use transform="matrix(0.05,0,0,0.05,51,0)" xlink:href="#ab"/><use transform="matrix(0.05,0,0,0.05,54.95,0)" xlink:href="#T"/><use transform="matrix(0.05,0,0,0.05,64.95,0)" xlink:href="#ac"/><use transform="matrix(0.05,0,0,0.05,69.95,0)" xlink:href="#ad"/></g><g id="f"><use transform="matrix(0.05,0,0,0.05,0,0)" xlink:href="#U"/><use transform="matrix(0.05,0,0,0.05,5,0)" xlink:href="#R"/><use transform="matrix(0.05,0,0,0.05,19.950000000000003,0)" xlink:href="#S"/><use transform="matrix(0.05,0,0,0.05,29.950000000000003,0)" xlink:href="#V"/><use transform="matrix(0.05,0,0,0.05,39.95,0)" xlink:href="#X"/></g><path d="M101-234c-31-9-42 10-38 44h38v23H63V0H32v-167H5v-23h27c-7-52 17-82 69-68v24" id="ae"/><g id="g"><use transform="matrix(0.05,0,0,0.05,0,0)" xlink:href="#aa"/><use transform="matrix(0.05,0,0,0.05,10,0)" xlink:href="#ae"/></g><g id="h"><use transform="matrix(0.05,0,0,0.05,0,0)" xlink:href="#P"/><use transform="matrix(0.05,0,0,0.05,12.950000000000001,0)" xlink:href="#Q"/><use transform="matrix(0.05,0,0,0.05,22.950000000000003,0)" xlink:href="#R"/><use transform="matrix(0.05,0,0,0.05,37.900000000000006,0)" xlink:href="#S"/><use transform="matrix(0.05,0,0,0.05,47.900000000000006,0)" xlink:href="#T"/></g><path d="M85-194c31 0 48 13 60 33l-1-100h32l1 261h-30c-2-10 0-23-3-31C134-8 116 4 85 4 32 4 16-35 15-94c0-66 23-100 70-100zm9 24c-40 0-46 34-46 75 0 40 6 74 45 74 42 0 51-32 51-76 0-42-9-74-50-73" id="af"/><path d="M24 0v-261h32V0H24" id="ag"/><g id="i"><use transform="matrix(0.05,0,0,0.05,0,0)" xlink:href="#M"/><use transform="matrix(0.05,0,0,0.05,14.950000000000001,0)" xlink:href="#aa"/><use transform="matrix(0.05,0,0,0.05,24.950000000000003,0)" xlink:href="#af"/><use transform="matrix(0.05,0,0,0.05,34.95,0)" xlink:href="#X"/><use transform="matrix(0.05,0,0,0.05,44.95,0)" xlink:href="#ag"/></g><path d="M212-179c-10-28-35-45-73-45-59 0-87 40-87 99 0 60 29 101 89 101 43 0 62-24 78-52l27 14C228-24 195 4 139 4 59 4 22-46 18-125c-6-104 99-153 187-111 19 9 31 26 39 46" id="ah"/><path d="M106-169C34-169 62-67 57 0H25v-261h32l-1 103c12-21 28-36 61-36 89 0 53 116 60 194h-32v-121c2-32-8-49-39-48" id="ai"/><g id="j"><use transform="matrix(0.05,0,0,0.05,0,0)" xlink:href="#ah"/><use transform="matrix(0.05,0,0,0.05,12.950000000000001,0)" xlink:href="#ag"/><use transform="matrix(0.05,0,0,0.05,16.900000000000002,0)" xlink:href="#aa"/><use transform="matrix(0.05,0,0,0.05,26.900000000000002,0)" xlink:href="#ac"/><use transform="matrix(0.05,0,0,0.05,31.900000000000002,0)" xlink:href="#ai"/><use transform="matrix(0.05,0,0,0.05,41.900000000000006,0)" xlink:href="#X"/><use transform="matrix(0.05,0,0,0.05,51.900000000000006,0)" xlink:href="#ad"/></g><path d="M114-163C36-179 61-72 57 0H25l-1-190h30c1 12-1 29 2 39 6-27 23-49 58-41v29" id="aj"/><g id="k"><use transform="matrix(0.05,0,0,0.05,0,0)" xlink:href="#ae"/><use transform="matrix(0.05,0,0,0.05,5,0)" xlink:href="#aj"/><use transform="matrix(0.05,0,0,0.05,10.95,0)" xlink:href="#aa"/><use transform="matrix(0.05,0,0,0.05,20.95,0)" xlink:href="#R"/></g><path d="M30 0v-248h187v28H63v79h144v27H63v87h162V0H30" id="ak"/><path d="M16-82v-28h88v28H16" id="al"/><path d="M96-169c-40 0-48 33-48 73s9 75 48 75c24 0 41-14 43-38l32 2c-6 37-31 61-74 61-59 0-76-41-82-99-10-93 101-131 147-64 4 7 5 14 7 22l-32 3c-4-21-16-35-41-35" id="am"/><g id="l"><use transform="matrix(0.05,0,0,0.05,0,0)" xlink:href="#ak"/><use transform="matrix(0.05,0,0,0.05,12,0)" xlink:href="#al"/><use transform="matrix(0.05,0,0,0.05,17.95,0)" xlink:href="#ah"/><use transform="matrix(0.05,0,0,0.05,30.899999999999995,0)" xlink:href="#aa"/><use transform="matrix(0.05,0,0,0.05,40.9,0)" xlink:href="#R"/><use transform="matrix(0.05,0,0,0.05,55.85,0)" xlink:href="#R"/><use transform="matrix(0.05,0,0,0.05,70.8,0)" xlink:href="#X"/><use transform="matrix(0.05,0,0,0.05,80.8,0)" xlink:href="#aj"/><use transform="matrix(0.05,0,0,0.05,86.75,0)" xlink:href="#am"/><use transform="matrix(0.05,0,0,0.05,95.75,0)" xlink:href="#X"/></g><path d="M185-189c-5-48-123-54-124 2 14 75 158 14 163 119 3 78-121 87-175 55-17-10-28-26-33-46l33-7c5 56 141 63 141-1 0-78-155-14-162-118-5-82 145-84 179-34 5 7 8 16 11 25" id="an"/><g id="m"><use transform="matrix(0.05,0,0,0.05,0,0)" xlink:href="#an"/><use transform="matrix(0.05,0,0,0.05,12,0)" xlink:href="#X"/><use transform="matrix(0.05,0,0,0.05,22,0)" xlink:href="#V"/><use transform="matrix(0.05,0,0,0.05,32,0)" xlink:href="#R"/><use transform="matrix(0.05,0,0,0.05,46.95,0)" xlink:href="#X"/><use transform="matrix(0.05,0,0,0.05,56.95,0)" xlink:href="#T"/><use transform="matrix(0.05,0,0,0.05,66.95,0)" xlink:href="#ac"/><use transform="matrix(0.05,0,0,0.05,71.95,0)" xlink:href="#S"/><use transform="matrix(0.05,0,0,0.05,81.95,0)" xlink:href="#ac"/><use transform="matrix(0.05,0,0,0.05,86.95,0)" xlink:href="#ab"/><use transform="matrix(0.05,0,0,0.05,90.9,0)" xlink:href="#aa"/><use transform="matrix(0.05,0,0,0.05,100.9,0)" xlink:href="#T"/></g><g id="n"><use transform="matrix(0.05,0,0,0.05,0,0)" xlink:href="#ah"/><use transform="matrix(0.05,0,0,0.05,12.950000000000001,0)" xlink:href="#ag"/><use transform="matrix(0.05,0,0,0.05,16.900000000000002,0)" xlink:href="#aa"/><use transform="matrix(0.05,0,0,0.05,26.900000000000002,0)" xlink:href="#ac"/><use transform="matrix(0.05,0,0,0.05,31.900000000000002,0)" xlink:href="#ai"/><use transform="matrix(0.05,0,0,0.05,41.900000000000006,0)" xlink:href="#X"/><use transform="matrix(0.05,0,0,0.05,51.900000000000006,0)" xlink:href="#ad"/></g><g id="o"><use transform="matrix(0.05,0,0,0.05,0,0)" xlink:href="#U"/><use transform="matrix(0.05,0,0,0.05,5,0)" xlink:href="#R"/><use transform="matrix(0.05,0,0,0.05,19.950000000000003,0)" xlink:href="#V"/></g><path d="M143 0L79-87 56-68V0H24v-261h32v163l83-92h37l-77 82L181 0h-38" id="ao"/><g id="p"><use transform="matrix(0.05,0,0,0.05,0,0)" xlink:href="#M"/><use transform="matrix(0.05,0,0,0.05,14.950000000000001,0)" xlink:href="#S"/><use transform="matrix(0.05,0,0,0.05,24.950000000000003,0)" xlink:href="#ad"/><use transform="matrix(0.05,0,0,0.05,33.95,0)" xlink:href="#ao"/></g><path d="M206 0h-36l-40-164L89 0H53L-1-190h32L70-26l43-164h34l41 164 42-164h31" id="ap"/><path d="M0 4l72-265h28L28 4H0" id="aq"/><g id="q"><use transform="matrix(0.05,0,0,0.05,0,0)" xlink:href="#ap"/><use transform="matrix(0.05,0,0,0.05,12.950000000000001,0)" xlink:href="#aq"/></g><path d="M160-131c35 5 61 23 61 61C221 17 115-2 30 0v-248c76 3 177-17 177 60 0 33-19 50-47 57zm-97-11c50-1 110 9 110-42 0-47-63-36-110-37v79zm0 115c55-2 124 14 124-45 0-56-70-42-124-44v89" id="ar"/><g id="r"><use transform="matrix(0.05,0,0,0.05,0,0)" xlink:href="#ar"/><use transform="matrix(0.05,0,0,0.05,12,0)" xlink:href="#V"/></g><path d="M233-177c-1 41-23 64-60 70L243 0h-38l-65-103H63V0H30v-248c88 3 205-21 203 71zM63-129c60-2 137 13 137-47 0-61-80-42-137-45v92" id="as"/><path d="M108 0H70L1-190h34L89-25l56-165h34" id="at"/><g id="s"><use transform="matrix(0.05,0,0,0.05,0,0)" xlink:href="#as"/><use transform="matrix(0.05,0,0,0.05,12.950000000000001,0)" xlink:href="#X"/><use transform="matrix(0.05,0,0,0.05,22.950000000000003,0)" xlink:href="#R"/><use transform="matrix(0.05,0,0,0.05,37.900000000000006,0)" xlink:href="#aa"/><use transform="matrix(0.05,0,0,0.05,47.900000000000006,0)" xlink:href="#at"/><use transform="matrix(0.05,0,0,0.05,56.900000000000006,0)" xlink:href="#X"/><use transform="matrix(0.05,0,0,0.05,66.9,0)" xlink:href="#af"/></g><g id="t"><use transform="matrix(0.05,0,0,0.05,0,0)" xlink:href="#ar"/><use transform="matrix(0.05,0,0,0.05,12,0)" xlink:href="#S"/><use transform="matrix(0.05,0,0,0.05,22,0)" xlink:href="#am"/><use transform="matrix(0.05,0,0,0.05,31,0)" xlink:href="#ao"/><use transform="matrix(0.05,0,0,0.05,40,0)" xlink:href="#V"/><use transform="matrix(0.05,0,0,0.05,50,0)" xlink:href="#aj"/><use transform="matrix(0.05,0,0,0.05,55.95,0)" xlink:href="#aa"/><use transform="matrix(0.05,0,0,0.05,65.95,0)" xlink:href="#Q"/><use transform="matrix(0.05,0,0,0.05,75.95,0)" xlink:href="#T"/><use transform="matrix(0.05,0,0,0.05,85.95,0)" xlink:href="#af"/></g><g id="u"><use transform="matrix(0.05,0,0,0.05,0,0)" xlink:href="#as"/><use transform="matrix(0.05,0,0,0.05,12.950000000000001,0)" xlink:href="#X"/><use transform="matrix(0.05,0,0,0.05,22.950000000000003,0)" xlink:href="#R"/><use transform="matrix(0.05,0,0,0.05,37.900000000000006,0)" xlink:href="#aa"/><use transform="matrix(0.05,0,0,0.05,47.900000000000006,0)" xlink:href="#at"/><use transform="matrix(0.05,0,0,0.05,56.900000000000006,0)" xlink:href="#X"/><use transform="matrix(0.05,0,0,0.05,66.9,0)" xlink:href="#aj"/></g><g id="v"><use transform="matrix(0.05,0,0,0.05,0,0)" xlink:href="#O"/><use transform="matrix(0.05,0,0,0.05,14,0)" xlink:href="#Z"/><use transform="matrix(0.05,0,0,0.05,24,0)" xlink:href="#X"/><use transform="matrix(0.05,0,0,0.05,34,0)" xlink:href="#T"/><use transform="matrix(0.05,0,0,0.05,44,0)" xlink:href="#Z"/><use transform="matrix(0.05,0,0,0.05,54,0)" xlink:href="#aa"/><use transform="matrix(0.05,0,0,0.05,64,0)" xlink:href="#ad"/><use transform="matrix(0.05,0,0,0.05,73,0)" xlink:href="#X"/></g><path d="M153-248C145-148 188 4 80 4 36 3 13-21 6-62l32-5c4 25 16 42 43 43 27 0 39-20 39-49v-147H72v-28h81" id="au"/><path d="M30-248c87 1 191-15 191 75 0 78-77 80-158 76V0H30v-248zm33 125c57 0 124 11 124-50 0-59-68-47-124-48v98" id="av"/><path d="M190 0L58-211 59 0H30v-248h39L202-35l-2-213h31V0h-41" id="aw"/><g id="w"><use transform="matrix(0.05,0,0,0.05,0,0)" xlink:href="#au"/><use transform="matrix(0.05,0,0,0.05,9,0)" xlink:href="#av"/><use transform="matrix(0.05,0,0,0.05,21,0)" xlink:href="#av"/><use transform="matrix(0.05,0,0,0.05,33,0)" xlink:href="#aw"/><use transform="matrix(0.05,0,0,0.05,45.95,0)" xlink:href="#X"/><use transform="matrix(0.05,0,0,0.05,55.95,0)" xlink:href="#ac"/></g><path d="M266 0h-40l-56-210L115 0H75L2-248h35L96-30l15-64 43-154h32l59 218 59-218h35" id="ax"/><g id="x"><use transform="matrix(0.05,0,0,0.05,0,0)" xlink:href="#ax"/><use transform="matrix(0.05,0,0,0.05,16.3,0)" xlink:href="#S"/><use transform="matrix(0.05,0,0,0.05,26.3,0)" xlink:href="#aj"/><use transform="matrix(0.05,0,0,0.05,32.25,0)" xlink:href="#Z"/><use transform="matrix(0.05,0,0,0.05,42.25,0)" xlink:href="#X"/><use transform="matrix(0.05,0,0,0.05,52.25,0)" xlink:href="#af"/></g><g id="y"><use transform="matrix(0.05,0,0,0.05,0,0)" xlink:href="#U"/><use transform="matrix(0.05,0,0,0.05,5,0)" xlink:href="#R"/><use transform="matrix(0.05,0,0,0.05,19.950000000000003,0)" xlink:href="#V"/></g><path d="M63-220v92h138v28H63V0H30v-248h175v28H63" id="ay"/><g id="z"><use transform="matrix(0.05,0,0,0.05,0,0)" xlink:href="#ay"/><use transform="matrix(0.05,0,0,0.05,10.950000000000001,0)" xlink:href="#ab"/><use transform="matrix(0.05,0,0,0.05,14.9,0)" xlink:href="#T"/><use transform="matrix(0.05,0,0,0.05,24.900000000000002,0)" xlink:href="#S"/><use transform="matrix(0.05,0,0,0.05,34.900000000000006,0)" xlink:href="#ag"/></g><g id="A"><use transform="matrix(0.05,0,0,0.05,0,0)" xlink:href="#N"/><use transform="matrix(0.05,0,0,0.05,10.3,0)" xlink:href="#aj"/><use transform="matrix(0.05,0,0,0.05,16.25,0)" xlink:href="#Y"/><use transform="matrix(0.05,0,0,0.05,25.25,0)" xlink:href="#al"/><use transform="matrix(0.05,0,0,0.05,31.200000000000003,0)" xlink:href="#aa"/><use transform="matrix(0.05,0,0,0.05,41.2,0)" xlink:href="#T"/></g><g id="B"><use transform="matrix(0.05,0,0,0.05,0,0)" xlink:href="#O"/><use transform="matrix(0.05,0,0,0.05,14,0)" xlink:href="#Q"/><use transform="matrix(0.05,0,0,0.05,24,0)" xlink:href="#ac"/><use transform="matrix(0.05,0,0,0.05,29,0)" xlink:href="#Q"/><use transform="matrix(0.05,0,0,0.05,39,0)" xlink:href="#Z"/><use transform="matrix(0.05,0,0,0.05,49,0)" xlink:href="#Q"/><use transform="matrix(0.05,0,0,0.05,59,0)" xlink:href="#ac"/></g><path d="M24 0v-248h52V0H24" id="az"/><path d="M135-194c87-1 58 113 63 194h-50c-7-57 23-157-34-157-59 0-34 97-39 157H25l-1-190h47c2 12-1 28 3 38 12-26 28-41 61-42" id="aA"/><path d="M135-194c53 0 70 44 70 98 0 56-19 98-73 100-31 1-45-17-59-34 3 33 2 69 2 105H25l-1-265h48c2 10 0 23 3 31 11-24 29-35 60-35zM114-30c33 0 39-31 40-66 0-38-9-64-40-64-56 0-55 130 0 130" id="aB"/><path d="M85 4C-2 5 27-109 22-190h50c7 57-23 150 33 157 60-5 35-97 40-157h50l1 190h-47c-2-12 1-28-3-38-12 25-28 42-61 42" id="aC"/><path d="M115-3C79 11 28 4 28-45v-112H4v-33h27l15-45h31v45h36v33H77v99c-1 23 16 31 38 25v30" id="aD"/><g id="C"><use transform="matrix(0.07407407407407408,0,0,0.07407407407407408,0,0)" xlink:href="#az"/><use transform="matrix(0.07407407407407408,0,0,0.07407407407407408,7.407407407407408,0)" xlink:href="#aA"/><use transform="matrix(0.07407407407407408,0,0,0.07407407407407408,23.629629629629633,0)" xlink:href="#aB"/><use transform="matrix(0.07407407407407408,0,0,0.07407407407407408,39.85185185185187,0)" xlink:href="#aC"/><use transform="matrix(0.07407407407407408,0,0,0.07407407407407408,56.07407407407409,0)" xlink:href="#aD"/></g><path d="M220-157c-53 9-28 100-34 157h-49v-107c1-27-5-49-29-50C55-147 81-57 75 0H25l-1-190h47c2 12-1 28 3 38 10-53 101-56 108 0 13-22 24-43 59-42 82 1 51 116 57 194h-49v-107c-1-25-5-48-29-50" id="aE"/><path d="M133-34C117-15 103 5 69 4 32 3 11-16 11-54c-1-60 55-63 116-61 1-26-3-47-28-47-18 1-26 9-28 27l-52-2c7-38 36-58 82-57s74 22 75 68l1 82c-1 14 12 18 25 15v27c-30 8-71 5-69-32zm-48 3c29 0 43-24 42-57-32 0-66-3-65 30 0 17 8 27 23 27" id="aF"/><path d="M195-6C206 82 75 100 31 46c-4-6-6-13-8-21l49-6c3 16 16 24 34 25 40 0 42-37 40-79-11 22-30 35-61 35-53 0-70-43-70-97 0-56 18-96 73-97 30 0 46 14 59 34l2-30h47zm-90-29c32 0 41-27 41-63 0-35-9-62-40-62-32 0-39 29-40 63 0 36 9 62 39 62" id="aG"/><path d="M185-48c-13 30-37 53-82 52C43 2 14-33 14-96s30-98 90-98c62 0 83 45 84 108H66c0 31 8 55 39 56 18 0 30-7 34-22zm-45-69c5-46-57-63-70-21-2 6-4 13-4 21h74" id="aH"/><g id="D"><use transform="matrix(0.07407407407407408,0,0,0.07407407407407408,0,0)" xlink:href="#az"/><use transform="matrix(0.07407407407407408,0,0,0.07407407407407408,7.407407407407408,0)" xlink:href="#aE"/><use transform="matrix(0.07407407407407408,0,0,0.07407407407407408,31.111111111111114,0)" xlink:href="#aF"/><use transform="matrix(0.07407407407407408,0,0,0.07407407407407408,45.92592592592593,0)" xlink:href="#aG"/><use transform="matrix(0.07407407407407408,0,0,0.07407407407407408,62.14814814814816,0)" xlink:href="#aH"/></g><g id="E"><use transform="matrix(0.07407407407407408,0,0,0.07407407407407408,0,0)" xlink:href="#az"/><use transform="matrix(0.07407407407407408,0,0,0.07407407407407408,7.407407407407408,0)" xlink:href="#aE"/><use transform="matrix(0.07407407407407408,0,0,0.07407407407407408,31.111111111111114,0)" xlink:href="#aF"/><use transform="matrix(0.07407407407407408,0,0,0.07407407407407408,45.92592592592593,0)" xlink:href="#aG"/><use transform="matrix(0.07407407407407408,0,0,0.07407407407407408,62.14814814814816,0)" xlink:href="#aH"/></g><path d="M24-248c93 1 206-16 204 79-1 75-69 88-152 82V0H24v-248zm52 121c47 0 100 7 100-41 0-47-54-39-100-39v80" id="aI"/><path d="M135-150c-39-12-60 13-60 57V0H25l-1-190h47c2 13-1 29 3 40 6-28 27-53 61-41v41" id="aJ"/><path d="M14-72v-43h91v43H14" id="aK"/><path d="M110-194c64 0 96 36 96 99 0 64-35 99-97 99-61 0-95-36-95-99 0-62 34-99 96-99zm-1 164c35 0 45-28 45-65 0-40-10-65-43-65-34 0-45 26-45 65 0 36 10 65 43 65" id="aL"/><path d="M190-63c-7 42-38 67-86 67-59 0-84-38-90-98-12-110 154-137 174-36l-49 2c-2-19-15-32-35-32-30 0-35 28-38 64-6 74 65 87 74 30" id="aM"/><path d="M137-138c1-29-70-34-71-4 15 46 118 7 119 86 1 83-164 76-172 9l43-7c4 19 20 25 44 25 33 8 57-30 24-41C81-84 22-81 20-136c-2-80 154-74 161-7" id="aN"/><g id="F"><use transform="matrix(0.07407407407407408,0,0,0.07407407407407408,0,0)" xlink:href="#aI"/><use transform="matrix(0.07407407407407408,0,0,0.07407407407407408,17.77777777777778,0)" xlink:href="#aJ"/><use transform="matrix(0.07407407407407408,0,0,0.07407407407407408,28.148148148148152,0)" xlink:href="#aH"/><use transform="matrix(0.07407407407407408,0,0,0.07407407407407408,42.96296296296297,0)" xlink:href="#aK"/><use transform="matrix(0.07407407407407408,0,0,0.07407407407407408,51.777777777777786,0)" xlink:href="#aB"/><use transform="matrix(0.07407407407407408,0,0,0.07407407407407408,68.00000000000001,0)" xlink:href="#aJ"/><use transform="matrix(0.07407407407407408,0,0,0.07407407407407408,78.37037037037038,0)" xlink:href="#aL"/><use transform="matrix(0.07407407407407408,0,0,0.07407407407407408,94.59259259259261,0)" xlink:href="#aM"/><use transform="matrix(0.07407407407407408,0,0,0.07407407407407408,109.40740740740742,0)" xlink:href="#aH"/><use transform="matrix(0.07407407407407408,0,0,0.07407407407407408,124.22222222222223,0)" xlink:href="#aN"/><use transform="matrix(0.07407407407407408,0,0,0.07407407407407408,139.03703703703704,0)" xlink:href="#aN"/><use transform="matrix(0.07407407407407408,0,0,0.07407407407407408,153.85185185185185,0)" xlink:href="#aL"/><use transform="matrix(0.07407407407407408,0,0,0.07407407407407408,170.07407407407408,0)" xlink:href="#aJ"/></g><path d="M175 0L67-191c6 58 2 128 3 191H24v-248h59L193-55c-6-58-2-129-3-193h46V0h-61" id="aO"/><path d="M231 0h-52l-39-155L100 0H48L-1-190h46L77-45c9-52 24-97 36-145h53l37 145 32-145h46" id="aP"/><path d="M147 0L96-86 75-71V0H25v-261h50v150l67-79h53l-66 74L201 0h-54" id="aQ"/><g id="G"><use transform="matrix(0.07407407407407408,0,0,0.07407407407407408,0,0)" xlink:href="#aO"/><use transform="matrix(0.07407407407407408,0,0,0.07407407407407408,19.185185185185187,0)" xlink:href="#aH"/><use transform="matrix(0.07407407407407408,0,0,0.07407407407407408,34,0)" xlink:href="#aD"/><use transform="matrix(0.07407407407407408,0,0,0.07407407407407408,42.814814814814824,0)" xlink:href="#aP"/><use transform="matrix(0.07407407407407408,0,0,0.07407407407407408,63.55555555555556,0)" xlink:href="#aL"/><use transform="matrix(0.07407407407407408,0,0,0.07407407407407408,79.77777777777779,0)" xlink:href="#aJ"/><use transform="matrix(0.07407407407407408,0,0,0.07407407407407408,90.14814814814817,0)" xlink:href="#aQ"/></g><g id="H"><use transform="matrix(0.07407407407407408,0,0,0.07407407407407408,0,0)" xlink:href="#az"/><use transform="matrix(0.07407407407407408,0,0,0.07407407407407408,7.407407407407408,0)" xlink:href="#aA"/><use transform="matrix(0.07407407407407408,0,0,0.07407407407407408,23.629629629629633,0)" xlink:href="#aB"/><use transform="matrix(0.07407407407407408,0,0,0.07407407407407408,39.85185185185187,0)" xlink:href="#aC"/><use transform="matrix(0.07407407407407408,0,0,0.07407407407407408,56.07407407407409,0)" xlink:href="#aD"/></g><path d="M136-208V0H84v-208H4v-40h212v40h-80" id="aR"/><path d="M123 10C108 53 80 86 19 72V37c35 8 53-11 59-39L3-190h52l48 148c12-52 28-100 44-148h51" id="aS"/><g id="I"><use transform="matrix(0.07407407407407408,0,0,0.07407407407407408,0,0)" xlink:href="#aR"/><use transform="matrix(0.07407407407407408,0,0,0.07407407407407408,14.740740740740744,0)" xlink:href="#aJ"/><use transform="matrix(0.07407407407407408,0,0,0.07407407407407408,25.111111111111114,0)" xlink:href="#aS"/><use transform="matrix(0.07407407407407408,0,0,0.07407407407407408,39.92592592592593,0)" xlink:href="#aK"/><use transform="matrix(0.07407407407407408,0,0,0.07407407407407408,48.74074074074075,0)" xlink:href="#aL"/><use transform="matrix(0.07407407407407408,0,0,0.07407407407407408,64.96296296296298,0)" xlink:href="#aA"/></g><g id="J"><use transform="matrix(0.07407407407407408,0,0,0.07407407407407408,0,0)" xlink:href="#aO"/><use transform="matrix(0.07407407407407408,0,0,0.07407407407407408,19.185185185185187,0)" xlink:href="#aH"/><use transform="matrix(0.07407407407407408,0,0,0.07407407407407408,34,0)" xlink:href="#aD"/><use transform="matrix(0.07407407407407408,0,0,0.07407407407407408,42.814814814814824,0)" xlink:href="#aP"/><use transform="matrix(0.07407407407407408,0,0,0.07407407407407408,63.55555555555556,0)" xlink:href="#aL"/><use transform="matrix(0.07407407407407408,0,0,0.07407407407407408,79.77777777777779,0)" xlink:href="#aJ"/><use transform="matrix(0.07407407407407408,0,0,0.07407407407407408,90.14814814814817,0)" xlink:href="#aQ"/></g><path d="M140-251c80 0 125 45 125 126S219 4 139 4C58 4 15-44 15-125s44-126 125-126zm-1 214c52 0 73-35 73-88 0-50-21-86-72-86-52 0-73 35-73 86s22 88 72 88" id="aT"/><g id="K"><use transform="matrix(0.07407407407407408,0,0,0.07407407407407408,0,0)" xlink:href="#aT"/><use transform="matrix(0.07407407407407408,0,0,0.07407407407407408,20.740740740740744,0)" xlink:href="#aC"/><use transform="matrix(0.07407407407407408,0,0,0.07407407407407408,36.96296296296297,0)" xlink:href="#aD"/><use transform="matrix(0.07407407407407408,0,0,0.07407407407407408,45.777777777777786,0)" xlink:href="#aB"/><use transform="matrix(0.07407407407407408,0,0,0.07407407407407408,62.000000000000014,0)" xlink:href="#aC"/><use transform="matrix(0.07407407407407408,0,0,0.07407407407407408,78.22222222222224,0)" xlink:href="#aD"/></g></defs></g></svg>